/vscmnt/brussel_pixiu_data/_data_brussel/112/vsc11236/PredSimResults/SUBJ07mtu3D/SUBJ07mtu3D_12829349.mot
version=1
nRows=4
nColumns=50
inDegrees=yes
endheader
                time	         pelvis_tilt	         pelvis_list	     pelvis_rotation	           pelvis_tx	           pelvis_ty	           pelvis_tz	       hip_flexion_r	     hip_adduction_r	      hip_rotation_r	        knee_angle_r	       ankle_angle_r	         mtp_angle_r	       hip_flexion_l	     hip_adduction_l	      hip_rotation_l	        knee_angle_l	       ankle_angle_l	         mtp_angle_l	    lumbar_extension	      lumbar_bending	     lumbar_rotation	 ercspn_r/activation	 intobl_r/activation	 extobl_r/activation	    abd_r/activation	    add_r/activation	hamstrings_r/activation	bifemsh_r/activation	glut_max_r/activation	iliopsoas_r/activation	rect_fem_r/activation	  vasti_r/activation	gastroc_r/activation	 soleus_r/activation	tib_ant_r/activation	 ercspn_l/activation	 intobl_l/activation	 extobl_l/activation	    abd_l/activation	    add_l/activation	hamstrings_l/activation	bifemsh_l/activation	glut_max_l/activation	iliopsoas_l/activation	rect_fem_l/activation	  vasti_l/activation	gastroc_l/activation	 soleus_l/activation	tib_ant_l/activation	
          1.11532502	         -5.78176614	         -3.94388884	          8.18274912	          1.36069652	          0.84810136	         -0.01069470	         29.65025679	          0.58656786	         -5.54183985	         -2.78621311	          7.42593010	          0.24720390	        -13.07810461	         -4.57495967	          4.01086765	         -7.86419834	          8.90966832	         26.57967130	         -6.94080306	          2.23804687	         -3.39485214	          0.09543655	          0.17494606	          0.02627399	          0.01315449	          0.11302001	          0.04170279	          0.19947402	          0.01000111	          0.06511787	          0.01000159	          0.01000063	          0.01177470	          0.01000020	          0.26948024	          0.04058401	          0.01000015	          0.01000040	          0.03441474	          0.02497099	          0.02306440	          0.13208346	          0.02781378	          0.32165805	          0.01000179	          0.01000051	          0.24876778	          0.24636766	          0.01826153	
          1.12647827	         -5.85072332	         -3.78867635	          8.02850505	          1.37657191	          0.84631856	         -0.01044815	         29.66714037	          0.76113313	         -4.62306890	         -4.42491836	          7.08748257	          0.24402176	        -13.12106612	         -4.39894238	          3.43118803	         -9.73472459	          8.22841451	         28.25883984	         -6.75493704	          2.65778199	         -3.52654982	          0.08047698	          0.14758734	          0.02215558	          0.01109259	          0.14630663	          0.04524149	          0.16820725	          0.06098110	          0.05491069	          0.01000072	          0.01000024	          0.02148028	          0.01682613	          0.27503355	          0.08439565	          0.01000018	          0.01000221	          0.02902025	          0.05677990	          0.02020099	          0.11137952	          0.02345399	          0.32615410	          0.01000074	          0.01006420	          0.20977355	          0.22901855	          0.01539904	
          1.13763152	         -5.90399571	         -3.63907617	          7.82036729	          1.39269728	          0.84468855	         -0.01015783	         29.51396062	          0.91033604	         -3.75023189	         -5.97164126	          6.69940819	          0.23602189	        -12.99858829	         -4.21922065	          2.80368317	        -11.96543566	          7.44568696	         29.84465898	         -6.55675189	          3.10238379	         -3.63250090	          0.08114180	          0.12445326	          0.01868272	          0.08007169	          0.14399307	          0.05246102	          0.14184161	          0.06867046	          0.04630348	          0.01000030	          0.01000008	          0.01811331	          0.01418867	          0.32148818	          0.10843506	          0.01000008	          0.01000039	          0.02447134	          0.04787994	          0.01703514	          0.09392092	          0.01977759	          0.31419009	          0.01000129	          0.01000075	          0.17689162	          0.19971023	          0.01298526	
          1.14878477	         -5.94327165	         -3.48875744	          7.56099045	          1.40886447	          0.84340514	         -0.00978107	         29.23686699	          1.07364218	         -2.96810025	         -7.29621100	          6.21776667	          0.22117655	        -12.63252781	         -4.03612531	          2.13904876	        -14.65174472	          6.52095418	         31.22855840	         -6.36807177	          3.55353032	         -3.71300096	          0.08893382	          0.10494530	          0.01575424	          0.12652355	          0.16402944	          0.04971810	          0.11960826	          0.10129720	          0.03904544	          0.01000045	          0.01000025	          0.01527415	          0.01196470	          0.34242877	          0.14746638	          0.01000011	          0.01000031	          0.02063547	          0.05484537	          0.01664574	          0.07919897	          0.01667747	          0.29719217	          0.01000068	          0.01000159	          0.14916392	          0.16840577	          0.01094984	
